<svg width="308" height="39" viewBox="0 0 308 39" fill="none" xmlns="http://www.w3.org/2000/svg">
<path d="M227.058 37.6128V34.8636H236.278C238.195 34.8636 239.704 34.3278 240.804 33.2563C241.903 32.1848 242.453 30.8455 242.453 29.2382C242.453 28.1949 242.214 27.2503 241.734 26.4044C241.255 25.5585 240.564 24.8959 239.662 24.4165C238.788 23.909 237.744 23.6552 236.532 23.6552H227.058V20.9483H236.067C237.646 20.9483 238.886 20.5253 239.789 19.6794C240.719 18.8335 241.184 17.6351 241.184 16.0842C241.184 14.5334 240.691 13.335 239.704 12.4891C238.717 11.6432 237.392 11.2202 235.728 11.2202H227.058V8.5133H235.813C237.617 8.5133 239.154 8.83757 240.423 9.48611C241.692 10.1346 242.651 11.0088 243.299 12.1084C243.948 13.2081 244.272 14.4488 244.272 15.8305C244.272 17.4659 243.849 18.8758 243.003 20.06C242.157 21.2161 240.916 22.1043 239.281 22.7247L239.577 21.7096C241.466 22.3017 242.933 23.2745 243.976 24.628C245.047 25.9815 245.583 27.5887 245.583 29.4497C245.583 31.0006 245.202 32.3963 244.441 33.637C243.708 34.8495 242.622 35.8223 241.184 36.5554C239.775 37.2603 238.069 37.6128 236.067 37.6128H227.058ZM225.07 37.6128V8.5133H228.157V37.6128H225.07ZM259.964 38.0358C257.962 38.0358 256.171 37.5846 254.592 36.6823C253.013 35.78 251.758 34.5393 250.828 32.9603C249.925 31.3812 249.474 29.6048 249.474 27.631C249.474 25.6854 249.925 23.9372 250.828 22.3863C251.73 20.8073 252.957 19.5666 254.508 18.6643C256.058 17.762 257.793 17.3108 259.71 17.3108C261.515 17.3108 263.108 17.7197 264.489 18.5374C265.899 19.3551 266.999 20.4971 267.788 21.9634C268.606 23.4014 269.015 25.065 269.015 26.9543C269.015 27.1798 269.001 27.4477 268.973 27.7579C268.944 28.0399 268.888 28.3782 268.804 28.773H251.589V26.2352H267.196L266.139 27.1657C266.167 25.6995 265.913 24.4447 265.378 23.4014C264.87 22.3299 264.123 21.5122 263.136 20.9483C262.177 20.3561 261.007 20.06 259.625 20.06C258.187 20.06 256.932 20.3702 255.861 20.9906C254.79 21.6109 253.944 22.485 253.323 23.6129C252.731 24.7126 252.435 26.0238 252.435 27.5464C252.435 29.069 252.745 30.4084 253.366 31.5645C254.014 32.7206 254.902 33.6229 256.03 34.2714C257.186 34.92 258.512 35.2442 260.006 35.2442C261.218 35.2442 262.332 35.0328 263.347 34.6098C264.362 34.1586 265.222 33.496 265.927 32.6219L267.831 34.5675C266.9 35.6672 265.744 36.5272 264.362 37.1475C263.009 37.7397 261.543 38.0358 259.964 38.0358ZM273.544 37.6128V17.7338H276.505V37.6128H273.544ZM287.206 37.6128V25.4316C287.206 23.7962 286.712 22.4991 285.725 21.5404C284.739 20.5535 283.498 20.06 282.003 20.06C280.988 20.06 280.058 20.2856 279.212 20.7368C278.394 21.1597 277.732 21.766 277.224 22.5555C276.745 23.345 276.505 24.2896 276.505 25.3893L275.152 24.8395C275.152 23.3168 275.49 21.9916 276.167 20.8637C276.843 19.7358 277.746 18.8617 278.874 18.2413C280.03 17.621 281.327 17.3108 282.765 17.3108C284.175 17.3108 285.429 17.621 286.529 18.2413C287.657 18.8617 288.545 19.7358 289.194 20.8637C289.87 21.9916 290.209 23.3309 290.209 24.8818V37.6128H287.206ZM300.91 37.6128V25.4316C300.91 23.7962 300.416 22.4991 299.429 21.5404C298.442 20.5535 297.188 20.06 295.665 20.06C294.678 20.06 293.762 20.2856 292.916 20.7368C292.098 21.1597 291.435 21.766 290.928 22.5555C290.448 23.345 290.209 24.2896 290.209 25.3893L288.432 24.8395C288.517 23.3168 288.912 21.9916 289.617 20.8637C290.35 19.7358 291.294 18.8617 292.45 18.2413C293.635 17.621 294.932 17.3108 296.342 17.3108C297.752 17.3108 299.02 17.621 300.148 18.2413C301.304 18.8617 302.207 19.7358 302.855 20.8637C303.532 21.9916 303.87 23.3309 303.87 24.8818V37.6128H300.91Z" fill="#D9B70D"/>
<path d="M83.6369 37.6128V7.75198H90.2773V37.6128H83.6369ZM109.013 37.6128V25.8969C109.013 24.8254 108.675 23.9654 107.998 23.3168C107.349 22.6401 106.518 22.3017 105.502 22.3017C104.798 22.3017 104.177 22.4568 103.641 22.767C103.106 23.0489 102.683 23.4719 102.373 24.0359C102.062 24.5716 101.907 25.1919 101.907 25.8969L99.4119 24.6703C99.4119 23.063 99.7643 21.6532 100.469 20.4407C101.174 19.2282 102.147 18.2977 103.388 17.6492C104.657 16.9725 106.08 16.6341 107.66 16.6341C109.182 16.6341 110.522 17.0007 111.678 17.7338C112.862 18.4387 113.792 19.3833 114.469 20.5676C115.146 21.7519 115.484 23.0489 115.484 24.4588V37.6128H109.013ZM95.4361 37.6128V17.057H101.907V37.6128H95.4361ZM126.112 37.6128L117.399 17.057H124.378L130.299 34.1868H127.254L133.175 17.057H140.027L131.314 37.5705L126.112 37.6128ZM151.931 38.078C149.703 38.078 147.715 37.6269 145.967 36.7246C144.247 35.7941 142.893 34.5111 141.907 32.8757C140.92 31.2402 140.426 29.3933 140.426 27.3349C140.426 25.2765 140.906 23.4437 141.864 21.8365C142.851 20.201 144.176 18.9181 145.84 17.9876C147.504 17.057 149.379 16.5918 151.465 16.5918C153.496 16.5918 155.286 17.0289 156.837 17.903C158.388 18.7771 159.6 19.9896 160.474 21.5404C161.377 23.0912 161.828 24.8677 161.828 26.8697C161.828 27.2362 161.8 27.631 161.743 28.0539C161.715 28.4487 161.645 28.914 161.532 29.4497L143.81 29.492V25.0509L158.783 25.0087L155.991 26.8697C155.963 25.6854 155.78 24.7126 155.441 23.9513C155.103 23.1617 154.595 22.5696 153.919 22.1748C153.27 21.7519 152.466 21.5404 151.508 21.5404C150.493 21.5404 149.604 21.7801 148.843 22.2594C148.11 22.7106 147.532 23.3591 147.109 24.205C146.714 25.0509 146.517 26.0801 146.517 27.2926C146.517 28.5051 146.728 29.5484 147.151 30.4225C147.602 31.2684 148.223 31.9311 149.012 32.4104C149.83 32.8616 150.789 33.0871 151.888 33.0871C152.903 33.0871 153.82 32.918 154.638 32.5796C155.455 32.213 156.174 31.6773 156.795 30.9724L160.348 34.5252C159.332 35.7095 158.106 36.5977 156.668 37.1898C155.23 37.782 153.651 38.078 151.931 38.078ZM172.438 38.1203C171.225 38.1203 170.027 37.9653 168.843 37.6551C167.687 37.3449 166.601 36.9079 165.586 36.3439C164.599 35.7518 163.753 35.075 163.048 34.3137L166.728 30.5917C167.405 31.3248 168.208 31.9029 169.139 32.3258C170.069 32.7206 171.084 32.918 172.184 32.918C172.945 32.918 173.523 32.8052 173.918 32.5796C174.341 32.354 174.553 32.0438 174.553 31.6491C174.553 31.1415 174.299 30.7609 173.791 30.5071C173.312 30.2251 172.692 29.9855 171.93 29.7881C171.169 29.5625 170.365 29.3228 169.519 29.069C168.673 28.8153 167.87 28.4628 167.109 28.0117C166.347 27.5605 165.727 26.9402 165.248 26.1506C164.768 25.3329 164.529 24.3037 164.529 23.063C164.529 21.7378 164.867 20.5958 165.544 19.6371C166.22 18.6502 167.179 17.8748 168.42 17.3108C169.66 16.7469 171.113 16.4649 172.776 16.4649C174.524 16.4649 176.132 16.7751 177.598 17.3954C179.092 17.9876 180.305 18.8758 181.235 20.06L177.556 23.7821C176.907 23.0208 176.174 22.485 175.356 22.1748C174.567 21.8647 173.791 21.7096 173.03 21.7096C172.297 21.7096 171.747 21.8224 171.38 22.0479C171.014 22.2453 170.831 22.5414 170.831 22.9362C170.831 23.3591 171.07 23.6975 171.55 23.9513C172.029 24.205 172.649 24.4306 173.411 24.628C174.172 24.8254 174.976 25.065 175.821 25.347C176.667 25.629 177.471 26.0097 178.232 26.489C178.994 26.9684 179.614 27.6169 180.093 28.4346C180.573 29.2241 180.812 30.2674 180.812 31.5645C180.812 33.5665 180.051 35.1596 178.528 36.3439C177.034 37.5282 175.004 38.1203 172.438 38.1203ZM187.242 37.6128V8.5556H193.713V37.6128H187.242ZM182.589 22.5555V17.057H198.365V22.5555H182.589ZM210.955 38.078C208.727 38.078 206.739 37.6269 204.991 36.7246C203.271 35.7941 201.918 34.5111 200.931 32.8757C199.944 31.2402 199.45 29.3933 199.45 27.3349C199.45 25.2765 199.93 23.4437 200.888 21.8365C201.875 20.201 203.2 18.9181 204.864 17.9876C206.528 17.057 208.403 16.5918 210.489 16.5918C212.52 16.5918 214.31 17.0289 215.861 17.903C217.412 18.7771 218.624 19.9896 219.498 21.5404C220.401 23.0912 220.852 24.8677 220.852 26.8697C220.852 27.2362 220.824 27.631 220.767 28.0539C220.739 28.4487 220.669 28.914 220.556 29.4497L202.834 29.492V25.0509L217.807 25.0087L215.015 26.8697C214.987 25.6854 214.804 24.7126 214.465 23.9513C214.127 23.1617 213.619 22.5696 212.943 22.1748C212.294 21.7519 211.49 21.5404 210.532 21.5404C209.517 21.5404 208.628 21.7801 207.867 22.2594C207.134 22.7106 206.556 23.3591 206.133 24.205C205.738 25.0509 205.541 26.0801 205.541 27.2926C205.541 28.5051 205.752 29.5484 206.175 30.4225C206.626 31.2684 207.247 31.9311 208.036 32.4104C208.854 32.8616 209.813 33.0871 210.912 33.0871C211.928 33.0871 212.844 32.918 213.662 32.5796C214.479 32.213 215.198 31.6773 215.819 30.9724L219.372 34.5252C218.356 35.7095 217.13 36.5977 215.692 37.1898C214.254 37.782 212.675 38.078 210.955 38.078Z" fill="black"/>
<path d="M8.68393 37.8387H16.4155L15.2014 24.4121H7.62158L8.68393 37.8387Z" fill="#D9B70D"/>
<path d="M24.0443 37.8385H31.7749L30.568 17.5737H22.981L24.0443 37.8385Z" fill="#D9B70D"/>
<path d="M39.1624 37.8385H46.9013L45.6861 10.9854H38.1074L39.1624 37.8385Z" fill="#D9B70D"/>
<path d="M69.8278 37.8385H77.3866L76.2066 0H68.7881L69.8278 37.8385Z" fill="#D9B70D"/>
<path d="M54.4135 37.8384H62.144L60.9287 4.88232H53.3501L54.4135 37.8384Z" fill="#D9B70D"/>
<path d="M81.7915 0.696777C81.7915 0.696777 81.6765 0.814387 81.452 1.02347L80.4282 1.96L76.5354 5.48829L62.4975 18.1205L62.4208 18.1858L62.3332 18.1335L53.1735 12.5492H53.3596L40.5481 25.4689L40.3948 25.6257L40.3017 25.7215L40.1867 25.6388L22.9349 13.5163H23.1265C16.3539 20.5903 10.6161 26.6319 6.50981 30.9051L1.73011 35.8752L0.454429 37.182L0.120451 37.5174C0.0831748 37.557 0.0429521 37.5948 0 37.6306C0.0311007 37.5881 0.0658601 37.5474 0.104027 37.5087L0.421576 37.1602L1.66441 35.8229L6.37841 30.818L22.913 13.3682L23.0006 13.2767L23.1046 13.3507L40.3784 25.4428H40.1703L40.3236 25.286L53.1516 12.375L53.2337 12.2922L53.3377 12.3576L62.481 17.9375H62.3168L76.426 5.40553C78.1287 3.90274 79.4646 2.72228 80.3789 1.92079L81.4247 1.00605C81.6656 0.788251 81.7915 0.696777 81.7915 0.696777Z" fill="black"/>
<path d="M79.7602 9.72677C79.7558 9.66068 79.765 9.59446 79.7875 9.53076L79.9244 8.9732C80.0668 8.45484 80.2584 7.76661 80.4719 6.92591C80.9592 5.18355 81.6491 2.80521 82.4429 0.139389L82.6181 0.270067L81.9995 0.422523C78.5666 1.26322 75.4568 2.00808 73.2011 2.5395L70.5238 3.15369L69.7901 3.3105C69.706 3.33546 69.6171 3.34872 69.5273 3.3497C69.6059 3.31576 69.6884 3.28804 69.7737 3.26694L70.4909 3.07092L73.1409 2.38704C75.3801 1.81642 78.4845 1.04542 81.9009 0.209084L82.5196 0.0609826L82.7605 0L82.7003 0.196015C81.9392 2.87491 81.2439 5.24453 80.6964 6.96512C80.4281 7.7971 80.2091 8.48098 80.0504 8.99498C79.9737 9.20842 79.908 9.39137 79.8587 9.53947C79.8376 9.60542 79.8044 9.66853 79.7602 9.72677Z" fill="black"/>
</svg>
